<svg width="144" height="135" viewBox="0 0 144 135" fill="none" xmlns="http://www.w3.org/2000/svg">
<path d="M-6.67694 94.4829C-6.66631 94.5379 -6.64954 94.5915 -6.62695 94.6428C-6.61695 94.6728 -6.60696 94.7128 -6.59696 94.7428L4.81137 114.5L4.84136 114.53C4.86136 114.56 4.88136 114.59 4.91136 114.63C4.94996 114.672 4.99362 114.709 5.04134 114.74C5.07133 114.76 5.09133 114.79 5.12132 114.81C5.13306 114.818 5.14722 114.821 5.16132 114.82C5.27451 114.883 5.40159 114.918 5.53126 114.92H50.6646L61.833 134.257L61.863 134.287C61.883 134.317 61.903 134.347 61.933 134.387C61.9716 134.429 62.0153 134.466 62.063 134.497C62.093 134.517 62.113 134.547 62.143 134.567C62.1547 134.575 62.1689 134.578 62.1829 134.577C62.2961 134.64 62.4232 134.675 62.5529 134.677H130.993C131.126 134.675 131.256 134.64 131.373 134.577L131.463 134.517C131.548 134.46 131.622 134.389 131.683 134.307C131.693 134.287 131.723 134.277 131.733 134.257L143.141 114.5C143.151 114.48 143.151 114.47 143.161 114.45C143.179 114.418 143.192 114.385 143.201 114.35C143.211 114.31 143.221 114.28 143.231 114.24C143.239 114.204 143.243 114.167 143.241 114.13C143.241 114.11 143.251 114.1 143.251 114.08C143.251 114.06 143.241 114.05 143.241 114.03C143.241 113.99 143.231 113.96 143.231 113.92C143.231 113.88 143.211 113.85 143.201 113.81C143.189 113.776 143.176 113.743 143.161 113.71C143.151 113.69 143.151 113.68 143.141 113.66L120.574 74.5758L131.733 55.2386C131.743 55.2186 131.743 55.2086 131.753 55.1886C131.77 55.1572 131.784 55.1236 131.793 55.0886C131.803 55.0486 131.813 55.0186 131.823 54.9787C131.831 54.9426 131.834 54.9056 131.833 54.8687C131.833 54.8487 131.843 54.8387 131.843 54.8187C131.843 54.7987 131.833 54.7887 131.833 54.7687C131.833 54.7287 131.823 54.6987 131.823 54.6587C131.823 54.6187 131.803 54.5887 131.793 54.5487C131.781 54.5147 131.768 54.4813 131.753 54.4487C131.743 54.4287 131.743 54.4187 131.733 54.3987L97.5278 -4.88256C97.5078 -4.91256 97.4778 -4.93256 97.4578 -4.96255C97.4236 -5.00793 97.3869 -5.05132 97.3478 -5.09253C97.3069 -5.12587 97.2634 -5.15595 97.2178 -5.18252C97.1743 -5.21175 97.1273 -5.23528 97.0778 -5.25251C97.0193 -5.27164 96.959 -5.28503 96.8979 -5.2925C96.8679 -5.2925 96.8379 -5.3125 96.7979 -5.3125H73.9812C73.9612 -5.3125 73.9512 -5.3025 73.9312 -5.3025C73.8912 -5.3025 73.8612 -5.2925 73.8212 -5.2925L73.7013 -5.26251C73.6713 -5.25251 73.6313 -5.23251 73.6013 -5.22251C73.5713 -5.21251 73.5713 -5.21251 73.5513 -5.20252C73.5399 -5.19017 73.5263 -5.18 73.5113 -5.17252C73.4789 -5.15237 73.4488 -5.12892 73.4213 -5.10253C73.3922 -5.07845 73.3654 -5.05167 73.3413 -5.02254C73.3213 -4.99255 73.2913 -4.96255 73.2713 -4.93256C73.259 -4.92116 73.2488 -4.90761 73.2413 -4.89256L50.6746 34.2017H28.3579C28.3379 34.2017 28.3279 34.2117 28.3079 34.2117C28.2679 34.2117 28.2379 34.2217 28.1979 34.2217C28.1579 34.2217 28.1179 34.2417 28.088 34.2517C28.054 34.2633 28.0206 34.2766 27.988 34.2917C27.968 34.3017 27.958 34.3017 27.938 34.3117C27.918 34.3217 27.918 34.3317 27.898 34.3417C27.8656 34.3618 27.8355 34.3853 27.808 34.4117C27.7789 34.4358 27.7521 34.4625 27.728 34.4917C27.708 34.5217 27.678 34.5517 27.658 34.5816C27.6457 34.593 27.6355 34.6066 27.628 34.6216L-6.58696 93.9029C-6.6015 93.9347 -6.61159 93.9684 -6.61695 94.0029C-6.63814 94.0547 -6.65487 94.1083 -6.66695 94.1629C-6.68282 94.2147 -6.68958 94.2688 -6.68694 94.3229C-6.6886 94.3764 -6.68525 94.43 -6.67694 94.4829ZM96.3079 -3.61275L129.553 53.9688H108.696L75.441 -3.61275H96.3079ZM107.716 93.483H86.8493L108.686 55.6486H129.553L107.716 93.483ZM73.9812 -2.77287L107.226 54.8087L85.3895 92.6431L74.9611 74.5658L86.1294 55.2286C86.1394 55.2086 86.1394 55.1986 86.1494 55.1786C86.167 55.1472 86.1805 55.1136 86.1894 55.0786C86.1994 55.0386 86.2094 55.0086 86.2194 54.9687C86.2277 54.9326 86.2311 54.8956 86.2294 54.8587C86.2294 54.8387 86.2394 54.8287 86.2394 54.8087C86.2394 54.7887 86.2294 54.7787 86.2294 54.7587C86.2294 54.7187 86.2194 54.6887 86.2194 54.6487C86.2194 54.6087 86.1994 54.5787 86.1894 54.5387C86.1778 54.5047 86.1645 54.4713 86.1494 54.4387C86.1394 54.4187 86.1394 54.4087 86.1294 54.3887L74.7111 34.6316C74.6911 34.6016 74.6611 34.5816 74.6411 34.5517C74.6069 34.5063 74.5702 34.4629 74.5311 34.4217C74.4902 34.3883 74.4468 34.3582 74.4012 34.3317C74.3566 34.3044 74.3098 34.281 74.2612 34.2617C74.2066 34.2421 74.1492 34.2319 74.0912 34.2317C74.0612 34.2317 74.0212 34.2117 73.9912 34.2117H52.6344L73.9812 -2.77287ZM51.1746 35.9015H73.5013L83.9398 53.9688H40.2562L29.8177 35.9015H51.1746ZM28.3579 36.7413L38.7864 54.8087L5.54126 112.39L-4.88721 94.3229L28.3579 36.7413ZM7.01105 113.23L40.2562 55.6486H83.9398L73.5013 73.7259H51.1746C51.1546 73.7259 51.1446 73.7359 51.1246 73.7359C51.0846 73.7359 51.0546 73.7459 51.0146 73.7459L50.8946 73.7759C50.8646 73.7859 50.8246 73.8059 50.7946 73.8159C50.7646 73.8259 50.7646 73.8259 50.7446 73.8359C50.7332 73.8482 50.7197 73.8584 50.7046 73.8659C50.6723 73.886 50.6421 73.9095 50.6146 73.9359C50.5855 73.96 50.5587 73.9867 50.5347 74.0159C50.5147 74.0459 50.4847 74.0759 50.4647 74.1059C50.4547 74.1158 50.4347 74.1258 50.4347 74.1458L39.0263 93.9029C39.0118 93.9347 39.0017 93.9684 38.9963 94.0029C38.9752 94.0547 38.9584 94.1083 38.9464 94.1629C38.9377 94.2158 38.9344 94.2694 38.9364 94.3229C38.9347 94.3764 38.9381 94.43 38.9464 94.4829C38.957 94.5379 38.9738 94.5916 38.9963 94.6428C39.0063 94.6728 39.0163 94.7128 39.0263 94.7428L49.7048 113.23H7.01105ZM130.533 132.987H64.0427L74.4711 114.92H140.961L130.533 132.987ZM62.5829 132.147L40.7461 94.3229L51.1846 76.2455L73.0214 114.07L62.5829 132.147ZM140.961 113.23H74.4711L52.6344 75.4057H73.5013L84.6697 94.7428L84.6996 94.7728C84.7196 94.8084 84.743 94.8419 84.7696 94.8728C84.8083 94.9147 84.8519 94.9516 84.8996 94.9828C84.9296 95.0028 84.9496 95.0328 84.9796 95.0528C84.9913 95.0607 85.0055 95.0643 85.0196 95.0628C85.1328 95.1261 85.2599 95.1604 85.3895 95.1628H108.206C108.339 95.1604 108.469 95.1261 108.586 95.0628L108.676 95.0028C108.761 94.946 108.835 94.875 108.896 94.7928C108.906 94.7728 108.936 94.7628 108.946 94.7428L119.625 76.2455L140.961 113.23Z" fill="white"/>
</svg>
